<svg id="Layer_1" data-name="Layer 1" xmlns="http://www.w3.org/2000/svg" viewBox="0 0 256 164"><defs><style>.cls-1{fill:#fff;}</style></defs><title>Snagit2019-Features_Favorites_Rev2</title><path class="cls-1" d="M215.43,9.57H40.57a4.93,4.93,0,0,0-4.92,4.92v135a4.93,4.93,0,0,0,4.92,4.92H215.43a4.93,4.93,0,0,0,4.92-4.92v-135A4.93,4.93,0,0,0,215.43,9.57ZM37.06,116.19V28H154.94v88.19Zm181.88.64v4.79H37.06v-4.79Zm-63.41-.64V28h63.41v88.19ZM40.57,11H215.43a3.52,3.52,0,0,1,3.51,3.52V27.3H37.06V14.49A3.52,3.52,0,0,1,40.57,11ZM215.43,153H40.57a3.52,3.52,0,0,1-3.51-3.52V122.26H218.94v27.25A3.52,3.52,0,0,1,215.43,153Z"/><path class="cls-1" d="M61.66,36.72a3.19,3.19,0,0,0,0,6.37H62V40.2h2.73v-.3A3.11,3.11,0,0,0,61.66,36.72Zm-.29,2.89v2.87a2.55,2.55,0,0,1-2.15-2.58,2.44,2.44,0,1,1,4.87-.29Z"/><path class="cls-1" d="M62,101h-.3a3.19,3.19,0,1,0,3,3.18v-.29H62Zm2.13,3.48a2.44,2.44,0,1,1-4.87-.3,2.54,2.54,0,0,1,2.15-2.57v2.87Z"/><path class="cls-1" d="M125.14,43.09h.29a3.19,3.19,0,1,0-3-3.19v.3h2.74ZM123,39.61a2.43,2.43,0,1,1,4.86.29,2.54,2.54,0,0,1-2.14,2.58V39.61Z"/><path class="cls-1" d="M125.43,101h-.29v2.89H122.4v.29a3,3,0,1,0,3-3.18Zm0,5.78a2.5,2.5,0,0,1-2.42-2.3h2.72v-2.87a2.61,2.61,0,0,1-.3,5.17Z"/><rect class="cls-1" x="67.68" y="39.15" width="51.46" height="1.5" transform="translate(-0.3 0.7) rotate(-0.43)"/><rect class="cls-1" x="67.95" y="103.47" width="51.46" height="1.5" transform="translate(-0.81 0.74) rotate(-0.45)"/><rect class="cls-1" x="60.91" y="45.68" width="1.5" height="53.12"/><rect class="cls-1" x="124.68" y="45.68" width="1.5" height="53.12"/><path class="cls-1" d="M51.84,125.15,52,150.81l27.55-.13L79.39,125Zm.78,25-.1-24.3,26.19-.12.1,24.29Z"/><path class="cls-1" d="M182.06,34H169.41a2.5,2.5,0,0,0-2.49,2.49V49.12a2.5,2.5,0,0,0,2.49,2.49h12.65a2.5,2.5,0,0,0,2.49-2.49V36.47A2.5,2.5,0,0,0,182.06,34Zm2.11,15.14a2.11,2.11,0,0,1-2.11,2.11H169.41a2.11,2.11,0,0,1-2.11-2.11V36.47a2.1,2.1,0,0,1,2.11-2.11h12.65a2.1,2.1,0,0,1,2.11,2.11Z"/><path class="cls-1" d="M121.69,24.31l3.74-2.66,3.75,2.66L127.75,20l3.75-2.67h-4.64L125.43,13,124,17.33h-4.64L123.12,20Zm-.58-6.42h3.3l1-3.1,1,3.1h3.3l-2.67,1.9,1,3.08L125.43,21l-2.67,1.9,1-3.08Z"/><path class="cls-1" d="M95.79,66.31a1.17,1.17,0,0,0-.77-.84h0l-9.71-3.24a1.17,1.17,0,0,0-1.48,1.48l3.24,9.71a1.16,1.16,0,0,0,1.93.46l1.15-1.15,8.91,8.92a3,3,0,0,0,4.19-4.18l-8.92-8.92,1.15-1.15A1.15,1.15,0,0,0,95.79,66.31Zm-1,.39-1.85,1.85,9.62,9.62a2,2,0,0,1,0,2.77,2,2,0,0,1-2.77,0l-9.62-9.62-1.86,1.85a.15.15,0,0,1-.15,0,.16.16,0,0,1-.12-.11l-3.24-9.72a.17.17,0,0,1,.21-.21l9.71,3.24h0a.13.13,0,0,1,.11.12A.16.16,0,0,1,94.77,66.7Z"/><path class="cls-1" d="M175.77,41l.51-.52a.53.53,0,0,0-.2-.87l-4.37-1.45a.52.52,0,0,0-.53.12.54.54,0,0,0-.13.54l1.45,4.36a.52.52,0,0,0,.87.21l.52-.52,4,4A1.33,1.33,0,0,0,179.77,45Zm3.68,5.56a.88.88,0,0,1-1.24,0l-4.32-4.32-.84.83s-.05,0-.07,0a.06.06,0,0,1,0,0l-1.45-4.36a.07.07,0,0,1,0-.08.11.11,0,0,1,.08,0L175.93,40a.06.06,0,0,1,0,0,.05.05,0,0,1,0,.07l-.83.84,4.32,4.32A.88.88,0,0,1,179.45,46.51Z"/><path class="cls-1" d="M205.83,34H193.18a2.5,2.5,0,0,0-2.49,2.49V49.12a2.5,2.5,0,0,0,2.49,2.49h12.65a2.5,2.5,0,0,0,2.49-2.49V36.47A2.5,2.5,0,0,0,205.83,34Zm2.11,15.14a2.11,2.11,0,0,1-2.11,2.11H193.18a2.11,2.11,0,0,1-2.11-2.11V36.47a2.1,2.1,0,0,1,2.11-2.11h12.65a2.1,2.1,0,0,1,2.11,2.11Z"/><path class="cls-1" d="M194.83,47.47h9.35V38.12h-9.35Zm.37-9h8.61v8.6H195.2Z"/><path class="cls-1" d="M182.06,57.75H169.41a2.49,2.49,0,0,0-2.49,2.48V72.89a2.49,2.49,0,0,0,2.49,2.48h12.65a2.49,2.49,0,0,0,2.49-2.48V60.23A2.49,2.49,0,0,0,182.06,57.75Zm2.11,15.14A2.11,2.11,0,0,1,182.06,75H169.41a2.11,2.11,0,0,1-2.11-2.11V60.23a2.11,2.11,0,0,1,2.11-2.11h12.65a2.11,2.11,0,0,1,2.11,2.11Z"/><path class="cls-1" d="M205.83,57.75H193.18a2.49,2.49,0,0,0-2.49,2.48V72.89a2.49,2.49,0,0,0,2.49,2.48h12.65a2.49,2.49,0,0,0,2.49-2.48V60.23A2.49,2.49,0,0,0,205.83,57.75Zm2.11,15.14A2.11,2.11,0,0,1,205.83,75H193.18a2.11,2.11,0,0,1-2.11-2.11V60.23a2.11,2.11,0,0,1,2.11-2.11h12.65a2.11,2.11,0,0,1,2.11,2.11Z"/><path class="cls-1" d="M202.39,61.88h-5.77a1.79,1.79,0,0,0-1.79,1.79v5.78a1.79,1.79,0,0,0,1.79,1.78h5.77a1.79,1.79,0,0,0,1.79-1.78V63.67A1.79,1.79,0,0,0,202.39,61.88Zm1.42,7.57a1.42,1.42,0,0,1-1.42,1.41h-5.77a1.42,1.42,0,0,1-1.42-1.41V63.67a1.42,1.42,0,0,1,1.42-1.41h5.77a1.42,1.42,0,0,1,1.42,1.41Z"/><path class="cls-1" d="M65.94,134.79l.93-.93a1,1,0,0,0,.25-.89.93.93,0,0,0-.62-.68l-7.89-2.63a.94.94,0,0,0-1.2,1.2L60,138.75a1,1,0,0,0,.68.62,1,1,0,0,0,.89-.25l.93-.94,7.24,7.25a2.4,2.4,0,1,0,3.4-3.4Zm6.66,10.06a1.58,1.58,0,0,1-2.24,0L62.54,137,61,138.54a.13.13,0,0,1-.12,0,.14.14,0,0,1-.1-.09l-2.63-7.89a.14.14,0,0,1,0-.14.12.12,0,0,1,.14,0l7.89,2.63a.15.15,0,0,1,.09.09.13.13,0,0,1,0,.13l-1.5,1.51,7.81,7.81A1.59,1.59,0,0,1,72.6,144.85Z"/><path class="cls-1" d="M175.73,61.24a5.32,5.32,0,1,0,5.32,5.32A5.32,5.32,0,0,0,175.73,61.24Zm0,10.19a4.87,4.87,0,1,1,4.87-4.87A4.87,4.87,0,0,1,175.73,71.43Z"/></svg>