<svg id="Layer_1" data-name="Layer 1" xmlns="http://www.w3.org/2000/svg" viewBox="0 0 256 164"><defs><style>.cls-1,.cls-10,.cls-11,.cls-12,.cls-2,.cls-3,.cls-4,.cls-5,.cls-6,.cls-7,.cls-8,.cls-9{fill:none;stroke:#fff;stroke-miterlimit:10;}.cls-1{stroke-width:1.41px;}.cls-2{stroke-width:0.7px;}.cls-3{stroke-width:0.59px;}.cls-4{stroke-width:0.64px;}.cls-5{stroke-width:0.59px;}.cls-6{stroke-width:1.5px;}.cls-7{stroke-width:0.75px;}.cls-8{stroke-width:0.41px;}.cls-9{stroke-width:1.15px;}.cls-10{stroke-width:1.31px;}.cls-11{stroke-width:0.85px;}.cls-12{stroke-width:0.47px;}.cls-13{fill:#fff;}</style></defs><title>Snagit2019-Features_Combine-Images_Rev2</title><rect class="cls-1" x="36.36" y="10.27" width="183.29" height="143.46" rx="4.22" ry="4.22"/><line class="cls-2" x1="36.36" y1="27.65" x2="219.64" y2="27.65"/><line class="cls-3" x1="181.09" y1="27.65" x2="181.09" y2="116.51"/><polyline class="cls-4" points="36.36 116.51 219.64 116.51 219.64 121.94 36.36 121.94"/><path class="cls-5" d="M64.4,39.9a2.74,2.74,0,1,0-2.74,2.89V39.9Z"/><path class="cls-5" d="M61.66,101.33a2.89,2.89,0,1,0,2.74,2.89H61.66Z"/><path class="cls-5" d="M158.43,37a2.82,2.82,0,0,0-2.73,2.89h2.73v2.89a2.89,2.89,0,0,0,0-5.78Z"/><path class="cls-5" d="M158.43,101.33v2.89H155.7a2.74,2.74,0,1,0,2.73-2.89Z"/><line class="cls-6" x1="67.68" y1="40.1" x2="152.15" y2="39.71"/><line class="cls-6" x1="67.95" y1="104.42" x2="152.41" y2="104.03"/><line class="cls-6" x1="61.66" y1="45.68" x2="61.66" y2="98.8"/><line class="cls-6" x1="158.43" y1="45.68" x2="158.43" y2="98.8"/><rect class="cls-7" x="49.27" y="125.43" width="32.8" height="24.98" transform="translate(-0.63 0.3) rotate(-0.26)"/><rect class="cls-7" x="93.52" y="125.43" width="32.8" height="24.98" transform="translate(-0.63 0.5) rotate(-0.26)"/><polygon class="cls-8" points="68.08 128.9 63.13 128.9 60.66 133.18 63.13 137.46 68.08 137.46 70.55 133.18 68.08 128.9"/><polygon class="cls-9" points="118.84 47.17 104.4 47.17 97.18 58.78 104.4 70.4 118.84 70.4 126.06 58.78 118.84 47.17"/><rect class="cls-10" x="100.37" y="74.46" width="22.49" height="22.49"/><rect class="cls-7" x="93.63" y="125.43" width="32.8" height="24.98" transform="translate(-0.63 0.5) rotate(-0.26)"/><rect class="cls-7" x="137.88" y="125.43" width="32.8" height="24.98" transform="translate(-0.63 0.71) rotate(-0.26)"/><polygon class="cls-7" points="114.51 129.9 105.42 129.9 100.87 137.77 105.42 145.65 114.51 145.65 119.06 137.77 114.51 129.9"/><rect class="cls-11" x="146.95" y="131.14" width="14.64" height="14.64"/><rect class="cls-12" x="61.6" y="139.46" width="8.01" height="8.01"/><path class="cls-13" d="M57.73,131.65a1.38,1.38,0,1,0-1.32-1.38A1.35,1.35,0,0,0,57.73,131.65Zm0-2.17a.79.79,0,1,1-.73.79A.77.77,0,0,1,57.73,129.48Z"/><path class="cls-13" d="M57.73,142.22a1.38,1.38,0,1,0-1.32-1.38A1.35,1.35,0,0,0,57.73,142.22Zm0-2.17a.79.79,0,1,1-.73.79A.77.77,0,0,1,57.73,140.05Z"/><path class="cls-13" d="M92.06,51.8a2.32,2.32,0,1,0-2.22-2.31A2.27,2.27,0,0,0,92.06,51.8Zm0-3.64a1.33,1.33,0,1,1-1.23,1.33A1.28,1.28,0,0,1,92.06,48.16Z"/><path class="cls-13" d="M92.06,79.1a2.32,2.32,0,1,0-2.22-2.32A2.27,2.27,0,0,0,92.06,79.1Zm0-3.65a1.33,1.33,0,1,1-1.23,1.33A1.29,1.29,0,0,1,92.06,75.45Z"/></svg>