<svg id="Layer_1" data-name="Layer 1" xmlns="http://www.w3.org/2000/svg" viewBox="0 0 256 164"><defs><style>.cls-1{fill:#fff;}</style></defs><title>Snagit2019-Features_SUI_Rev2</title><path class="cls-1" d="M53.92,95.85h66a2.65,2.65,0,0,0,2.64-2.65V50.93a2.65,2.65,0,0,0-2.64-2.65h-66a2.65,2.65,0,0,0-2.65,2.65V52a2.28,2.28,0,0,0,0,.61V93.2A2.65,2.65,0,0,0,53.92,95.85Zm66-.59h-66a2.06,2.06,0,0,1-2.06-2.06V52a1.39,1.39,0,0,1,.32-.76,2.13,2.13,0,0,1,1.72-.6h7.23a1.65,1.65,0,0,1,.3,0v0h.14a1.27,1.27,0,0,1,.72.29,2,2,0,0,1,.55,1.58v2.82H122V93.2A2.07,2.07,0,0,1,119.89,95.26ZM70.36,54.78H63.43V52.55a2.66,2.66,0,0,0-.62-1.88h5.85a1.58,1.58,0,0,1,1.16.3,2,2,0,0,1,.54,1.58ZM53.92,48.87h66A2.06,2.06,0,0,1,122,50.93v3.85H71V52.55a2.5,2.5,0,0,0-.76-2,2,2,0,0,0-1.58-.43h-7a2.05,2.05,0,0,0-.55,0H53.9a2.8,2.8,0,0,0-2,.68A2.07,2.07,0,0,1,53.92,48.87Z"/><path class="cls-1" d="M38.52,36.72a3.19,3.19,0,0,0,0,6.37h.29V40.2h2.74v-.3A3.11,3.11,0,0,0,38.52,36.72Zm-.3,2.89v2.87a2.55,2.55,0,0,1-2.15-2.58,2.53,2.53,0,0,1,2.45-2.59,2.5,2.5,0,0,1,2.42,2.3Z"/><path class="cls-1" d="M38.81,101h-.29a3.19,3.19,0,1,0,3,3.18v-.29H38.81Zm2.13,3.48a2.44,2.44,0,1,1-4.87-.3,2.54,2.54,0,0,1,2.15-2.57v2.87Z"/><path class="cls-1" d="M135,43.09h.3a3.19,3.19,0,1,0-3-3.19v.3H135Zm-2.13-3.48a2.44,2.44,0,1,1,4.87.29,2.55,2.55,0,0,1-2.15,2.58V39.61Z"/><path class="cls-1" d="M135.29,101H135v2.89h-2.73v.29a3,3,0,1,0,3-3.18Zm0,5.78a2.51,2.51,0,0,1-2.43-2.3h2.72v-2.87a2.61,2.61,0,0,1-.29,5.17Z"/><rect class="cls-1" x="44.54" y="39.15" width="84.46" height="1.5" transform="translate(-0.18 0.4) rotate(-0.26)"/><rect class="cls-1" x="44.8" y="103.47" width="84.46" height="1.5" transform="translate(-0.47 0.4) rotate(-0.26)"/><rect class="cls-1" x="37.77" y="45.68" width="1.5" height="53.12"/><rect class="cls-1" x="134.54" y="45.68" width="1.5" height="53.12"/><path class="cls-1" d="M118.87,53.21a1.38,1.38,0,1,0-1.32-1.38A1.35,1.35,0,0,0,118.87,53.21Zm0-2.17a.79.79,0,1,1-.73.79A.76.76,0,0,1,118.87,51Z"/><path class="cls-1" d="M115.11,53.21a1.38,1.38,0,1,0-1.32-1.38A1.35,1.35,0,0,0,115.11,53.21Zm0-2.17a.79.79,0,0,1,0,1.58.79.79,0,0,1,0-1.58Z"/><path class="cls-1" d="M111.35,53.21A1.38,1.38,0,1,0,110,51.83,1.35,1.35,0,0,0,111.35,53.21Zm0-2.17a.79.79,0,1,1-.73.79A.76.76,0,0,1,111.35,51Z"/><rect class="cls-1" x="59.03" y="60.5" width="15.39" height="3.25"/><rect class="cls-1" x="59.03" y="83.99" width="8.89" height="3.25"/><rect class="cls-1" x="59.03" y="69.89" width="40.01" height="2.17"/><rect class="cls-1" x="59.03" y="74.23" width="40.01" height="2.17"/><rect class="cls-1" x="59.03" y="78.57" width="27.7" height="2.17"/><path class="cls-1" d="M107.25,87.24h11.28V60.5H107.25Zm2-24.93h6.84v2.53H109.3Zm0,4.33h6.84v.73H109.3Zm0,1.81h6.84v.72H109.3Zm0,1.81h6.84V71H109.3Zm0,1.8h5.13v.73H109.3Zm0,3.74h5.81v2H109.3Zm0,3.49h6.84V80H109.3Zm0,1.81h6.84v.72H109.3Zm0,1.8h5.13v.73H109.3Z"/><path class="cls-1" d="M55.33,128.68H29.72a1,1,0,0,0-1,1v.42a.53.53,0,0,0,0,.23v15.76a1,1,0,0,0,1,1H55.33a1,1,0,0,0,1-1V129.71A1,1,0,0,0,55.33,128.68Zm0,18.24H29.72a.8.8,0,0,1-.8-.8v-16a.61.61,0,0,1,.12-.31.86.86,0,0,1,.67-.23h2.81a.34.34,0,0,1,.11,0h0a.58.58,0,0,1,.29.11.79.79,0,0,1,.21.62v1.09h23v14.69A.8.8,0,0,1,55.33,146.92ZM36.1,131.2H33.41v-.86a1,1,0,0,0-.25-.73h2.28a.62.62,0,0,1,.45.12.75.75,0,0,1,.21.61Zm20,0H36.33v-.86a1,1,0,0,0-.3-.79.81.81,0,0,0-.61-.17H29.71a1.07,1.07,0,0,0-.78.27.78.78,0,0,1,.79-.74H55.33a.8.8,0,0,1,.8.8Z"/><path class="cls-1" d="M25.7,125.13l.1,25.72,33.55-.15L59.24,125Zm.85,25-.1-24.23,32.05-.14L58.6,150Z"/><path class="cls-1" d="M54.94,129.52a.54.54,0,1,0,.51.54A.53.53,0,0,0,54.94,129.52Zm0,.84a.29.29,0,0,1-.29-.3.3.3,0,0,1,.29-.31.29.29,0,0,1,.28.31A.28.28,0,0,1,54.94,130.36Z"/><path class="cls-1" d="M53.48,129.52a.54.54,0,1,0,.51.54A.53.53,0,0,0,53.48,129.52Zm0,.84a.29.29,0,0,1-.29-.3.3.3,0,0,1,.29-.31.29.29,0,0,1,.28.31A.28.28,0,0,1,53.48,130.36Z"/><path class="cls-1" d="M52,129.52a.54.54,0,1,0,.51.54A.53.53,0,0,0,52,129.52Zm0,.84a.29.29,0,0,1-.29-.3.29.29,0,1,1,.57,0A.29.29,0,0,1,52,130.36Z"/><rect class="cls-1" x="31.7" y="133.42" width="5.98" height="1.26"/><rect class="cls-1" x="31.7" y="142.54" width="3.45" height="1.26"/><rect class="cls-1" x="31.7" y="137.07" width="15.54" height="0.84"/><rect class="cls-1" x="31.7" y="138.76" width="15.54" height="0.84"/><rect class="cls-1" x="31.7" y="140.44" width="10.76" height="0.84"/><path class="cls-1" d="M50.42,143.81h4.39V133.42H50.42Zm.8-9.68h2.66v1H51.22Zm0,1.68h2.66v.28H51.22Zm0,.7h2.66v.28H51.22Zm0,.7h2.66v.28H51.22Zm0,.7h2v.28h-2Zm0,1.45h2.26v.77H51.22Zm0,1.36h2.66V141H51.22Zm0,.7h2.66v.28H51.22Zm0,.7h2v.28h-2Z"/><path class="cls-1" d="M243.49,92.27,197.2,49.64V14.49a4.93,4.93,0,0,0-4.92-4.92H17.43a4.93,4.93,0,0,0-4.92,4.92v135a4.93,4.93,0,0,0,4.92,4.92H192.28a4.93,4.93,0,0,0,4.92-4.92V112.6l7.38-5.5,11.69,24.82L232,122.51,219.54,97.08Zm-54.31-50a5.86,5.86,0,0,0,.44-2.22v-.26a6.08,6.08,0,0,0-6.07-6.07H170.81a6.08,6.08,0,0,0-6.07,6.07V40a6.07,6.07,0,0,0,6.07,6.07h12.47L185,116.19H158.24V28h37.55V48.34Zm-8.92.85h-9.45A3.07,3.07,0,0,1,167.74,40v-.26a3.07,3.07,0,0,1,3.07-3.07h9.45a4.87,4.87,0,0,0,0,6.4Zm11.26,73.73h4.27v4.79H185.08Zm-177.61-.64V28H157.65v88.19Zm171.06.64.11,4.79H13.91v-4.79ZM17.43,11H192.28a3.52,3.52,0,0,1,3.51,3.52V27.3H13.91V14.49A3.53,3.53,0,0,1,17.43,11ZM192.28,153H17.43a3.53,3.53,0,0,1-3.52-3.52V122.26H195.79v27.25A3.52,3.52,0,0,1,192.28,153Zm3.51-36.84h-3.41l3.41-2.54Zm33.44,5.49-12,7.18-11.8-25.06-18.28,13.61-1.81-75.79L238.93,91l-22.55,4.53Z"/></svg>