<svg id="Layer_1" data-name="Layer 1" xmlns="http://www.w3.org/2000/svg" viewBox="0 0 256 164"><defs><style>.cls-1{fill:#fff;}</style></defs><title>Snagit2019-Features_StampSearch_Rev2</title><path class="cls-1" d="M215.43,9.57H40.57a4.93,4.93,0,0,0-4.92,4.92v135a4.93,4.93,0,0,0,4.92,4.92H215.43a4.93,4.93,0,0,0,4.92-4.92v-135A4.93,4.93,0,0,0,215.43,9.57ZM37.06,116.19V28H154.94v88.19Zm181.88.64v4.79H37.06v-4.79Zm-63.41-.64V28h63.41v88.19ZM40.57,11H215.43a3.52,3.52,0,0,1,3.51,3.52V27.3H37.06V14.49A3.52,3.52,0,0,1,40.57,11ZM215.43,153H40.57a3.52,3.52,0,0,1-3.51-3.52V122.26H218.94v27.25A3.52,3.52,0,0,1,215.43,153Z"/><path class="cls-1" d="M209.88,34.83H166.77A1.76,1.76,0,0,0,165,36.59v6.62A1.76,1.76,0,0,0,166.77,45h43.11a1.76,1.76,0,0,0,1.76-1.76V36.59A1.76,1.76,0,0,0,209.88,34.83Zm1,8.38a1,1,0,0,1-1,1H166.77a1,1,0,0,1-1-1V36.59a1,1,0,0,1,1-1h43.11a1,1,0,0,1,1,1Z"/><path class="cls-1" d="M61.66,36.72a3.19,3.19,0,0,0,0,6.37H62V40.2h2.73v-.3A3.11,3.11,0,0,0,61.66,36.72Zm-.29,2.89v2.87a2.55,2.55,0,0,1-2.15-2.58,2.44,2.44,0,1,1,4.87-.29Z"/><path class="cls-1" d="M62,101h-.3a3.19,3.19,0,1,0,3,3.18v-.29H62Zm2.13,3.48a2.44,2.44,0,1,1-4.87-.3,2.54,2.54,0,0,1,2.15-2.57v2.87Z"/><path class="cls-1" d="M125.14,43.09h.29a3.19,3.19,0,1,0-3-3.19v.3h2.74ZM123,39.61a2.5,2.5,0,0,1,2.42-2.3,2.53,2.53,0,0,1,2.45,2.59,2.55,2.55,0,0,1-2.15,2.58V39.61Z"/><path class="cls-1" d="M125.43,101h-.29v2.89H122.4v.29a3,3,0,1,0,3-3.18Zm0,5.78a2.5,2.5,0,0,1-2.42-2.3h2.72v-2.87a2.61,2.61,0,0,1-.3,5.17Z"/><rect class="cls-1" x="67.68" y="39.15" width="51.46" height="1.5" transform="translate(-0.3 0.7) rotate(-0.43)"/><rect class="cls-1" x="67.95" y="103.47" width="51.46" height="1.5" transform="translate(-0.81 0.74) rotate(-0.45)"/><rect class="cls-1" x="60.91" y="45.68" width="1.5" height="53.12"/><rect class="cls-1" x="124.68" y="45.68" width="1.5" height="53.12"/><path class="cls-1" d="M51.84,125.15,52,150.81l27.55-.13L79.39,125Zm.78,25-.1-24.3,26.19-.12L78.82,150Z"/><path class="cls-1" d="M174.59,39.26A2.74,2.74,0,1,0,171.85,42a2.7,2.7,0,0,0,1.81-.7l1.86,1.86.67-.67-1.94-1.94A2.7,2.7,0,0,0,174.59,39.26Zm-2.74,2a2,2,0,1,1,2-2A2,2,0,0,1,171.85,41.25Z"/><path class="cls-1" d="M176.61,51.52a6.75,6.75,0,1,0,6.75,6.75A6.75,6.75,0,0,0,176.61,51.52Zm0,12.75a6,6,0,1,1,6-6A6,6,0,0,1,176.61,64.27Z"/><path class="cls-1" d="M198.73,65c5.17,0,9.38-3,9.38-6.75s-4.21-6.75-9.38-6.75-9.37,3-9.37,6.75S193.56,65,198.73,65Zm0-12.75c4.76,0,8.63,2.69,8.63,6s-3.87,6-8.63,6-8.62-2.69-8.62-6S194,52.27,198.73,52.27Z"/><path class="cls-1" d="M179.57,85.27a3.79,3.79,0,0,0,3.79-3.79V75.56a3.79,3.79,0,0,0-3.79-3.79h-5.92a3.79,3.79,0,0,0-3.79,3.79v5.92a3.79,3.79,0,0,0,3.79,3.79Zm-9-3.79V75.56a3,3,0,0,1,3-3h5.92a3,3,0,0,1,3,3v5.92a3,3,0,0,1-3,3h-5.92A3,3,0,0,1,170.61,81.48Z"/><path class="cls-1" d="M188.91,80.8a4.55,4.55,0,0,0,4.54,4.55h10.18a4.55,4.55,0,0,0,4.55-4.55V76.24a4.55,4.55,0,0,0-4.55-4.54H193.45a4.55,4.55,0,0,0-4.54,4.54Zm.9-4.56a3.64,3.64,0,0,1,3.64-3.64h10.18a3.65,3.65,0,0,1,3.65,3.64V80.8a3.66,3.66,0,0,1-3.65,3.65H193.45a3.65,3.65,0,0,1-3.64-3.65Z"/><path class="cls-1" d="M169.78,104.85h13.65V91.2H169.78Zm.9-12.75h11.85V104H170.68Z"/><path class="cls-1" d="M167.79,67.08h17.63V49.46H167.79Zm.38-17.25H185V66.71H168.17Z"/><path class="cls-1" d="M188.82,104.94h19.45V91.1H188.82Zm1.08-12.75h17.29v11.66H189.9Z"/><path class="cls-1" d="M77.87,72.52A15.49,15.49,0,1,0,93.36,57,15.51,15.51,0,0,0,77.87,72.52Zm29.25,0A13.77,13.77,0,1,1,93.36,58.76,13.78,13.78,0,0,1,107.12,72.52Z"/><path class="cls-1" d="M66,131.4a6.75,6.75,0,1,0,6.75,6.75A6.75,6.75,0,0,0,66,131.4Zm0,12.75a6,6,0,1,1,6-6A6,6,0,0,1,66,144.15Z"/></svg>